<svg width="20" height="20" viewBox="0 0 20 20" fill="none" xmlns="http://www.w3.org/2000/svg"><path d="M9.8335 2C5.41506 2 1.8335 5.58156 1.8335 10C1.8335 14.4184 5.41506 18 9.8335 18C14.2519 18 17.8335 14.4184 17.8335 10C17.8335 5.58156 14.2519 2 9.8335 2ZM13.5029 13.5395C13.3596 13.7755 13.052 13.8491 12.817 13.7058C10.9379 12.5574 8.57341 12.2985 5.7886 12.9348C5.52015 12.9959 5.25265 12.8278 5.19151 12.5603C5.13037 12.2919 5.29755 12.0244 5.56696 11.9632C8.61449 11.2668 11.2283 11.5668 13.3377 12.8546C13.5727 12.9979 13.6472 13.3055 13.5029 13.5405V13.5395ZM14.4822 11.3614C14.3016 11.6546 13.9176 11.7473 13.6243 11.5668C11.4748 10.2455 8.19605 9.86243 5.65198 10.6343C5.32239 10.7337 4.97369 10.5484 4.87338 10.2188C4.77403 9.88918 4.96032 9.54144 5.28895 9.44113C8.19509 8.55935 11.8072 8.98639 14.2758 10.5044C14.5691 10.685 14.6618 11.069 14.4812 11.3623L14.4822 11.3614ZM14.5662 9.09338C11.9878 7.56198 7.73366 7.42154 5.27176 8.16862C4.87625 8.28899 4.45876 8.06544 4.33839 7.66993C4.21897 7.27442 4.44157 6.85694 4.83708 6.73657C7.66297 5.87867 12.3613 6.0449 15.3296 7.80654C15.6849 8.01767 15.8015 8.47719 15.5913 8.83162C15.3802 9.18701 14.9207 9.30451 14.5662 9.09338Z" fill="white"></path></svg>