<svg width="21" height="20" viewBox="0 0 21 20" fill="none" xmlns="http://www.w3.org/2000/svg"><path d="M15.248 10.2544C15.2402 8.92236 15.8438 7.91846 17.0625 7.17822C16.3809 6.20166 15.3496 5.66455 13.9902 5.56104C12.7031 5.45947 11.2949 6.31104 10.7793 6.31104C10.2344 6.31104 8.98828 5.59619 8.00781 5.59619C5.98438 5.62744 3.83398 7.20947 3.83398 10.4282C3.83398 11.3794 4.00781 12.3618 4.35547 13.3735C4.82031 14.7056 6.49609 17.9692 8.24414 17.9165C9.1582 17.895 9.80469 17.2681 10.9941 17.2681C12.1484 17.2681 12.7461 17.9165 13.7656 17.9165C15.5293 17.8911 17.0449 14.9243 17.4863 13.5884C15.1211 12.4731 15.248 10.3228 15.248 10.2544ZM13.1953 4.29736C14.1855 3.12158 14.0957 2.05127 14.0664 1.6665C13.1914 1.71729 12.1797 2.26221 11.6035 2.93213C10.9688 3.65088 10.5957 4.53955 10.6758 5.5415C11.6211 5.61377 12.4844 5.12744 13.1953 4.29736Z" fill="#FAFAFA"></path></svg>