<svg width="21" height="20" viewBox="0 0 21 20" fill="none" xmlns="http://www.w3.org/2000/svg"><path d="M10.3687 8.28488V11.5835H14.8548C14.1951 13.3647 12.4798 14.5522 10.5007 14.5522C7.92773 14.5522 5.8826 12.5071 5.8826 9.93419C5.8826 7.36127 7.92773 5.31613 10.5007 5.31613C11.4902 5.31613 12.4138 5.646 13.2055 6.17377L13.4694 6.37169L15.4486 3.79877L15.1847 3.60086C13.7993 2.61127 12.2159 2.0835 10.5007 2.0835C6.14648 2.0835 2.58398 5.646 2.58398 10.0002C2.58398 14.3543 6.14648 17.9168 10.5007 17.9168C14.8548 17.9168 18.4173 14.3543 18.4173 10.0002V8.35086H10.3687V8.28488Z" fill="#FAFAFA"></path></svg>