<svg width="19" height="19" viewBox="0 0 19 19" fill="none" xmlns="http://www.w3.org/2000/svg"><path d="M18.1517 7.37138H17.4135V7.33333H9.165V11H14.3446C13.5889 13.1345 11.5584 14.6667 9.165 14.6667C6.12818 14.6667 3.666 12.204 3.666 9.16667C3.666 6.12929 6.12818 3.66667 9.165 3.66667C10.5668 3.66667 11.8421 4.19558 12.8131 5.05954L15.4054 2.46675C13.7686 0.940958 11.5791 0 9.165 0C4.10363 0 0 4.10437 0 9.16667C0 14.229 4.10363 18.3333 9.165 18.3333C14.2264 18.3333 18.33 14.229 18.33 9.16667C18.33 8.55204 18.2668 7.95208 18.1517 7.37138Z" fill="#FFC107"></path><path d="M1.05664 4.90004L4.0678 7.10875C4.88257 5.09117 6.85579 3.66667 9.16492 3.66667C10.5667 3.66667 11.842 4.19558 12.813 5.05954L15.4054 2.46675C13.7685 0.940958 11.579 0 9.16492 0C5.64464 0 2.59178 1.98779 1.05664 4.90004Z" fill="#FF3D00"></path><path d="M9.165 18.3335C11.5323 18.3335 13.6833 17.4274 15.3097 15.9538L12.4731 13.5531C11.5529 14.2502 10.4091 14.6668 9.165 14.6668C6.78118 14.6668 4.75709 13.1465 3.99457 11.0249L1.00586 13.328C2.52267 16.2967 5.60302 18.3335 9.165 18.3335Z" fill="#4CAF50"></path><path d="M18.1518 7.37154H17.4135V7.3335H9.16504V11.0002H14.3446C13.9817 12.0255 13.3223 12.9096 12.4718 13.5535L12.4731 13.5526L15.3097 15.9534C15.109 16.1358 18.33 13.7502 18.33 9.16683C18.33 8.5522 18.2668 7.95225 18.1518 7.37154Z" fill="#1976D2"></path></svg>