<svg width="20" height="20" viewBox="0 0 20 20" fill="none" xmlns="http://www.w3.org/2000/svg"><path d="M10 1C5.02926 1 1 5.02926 1 10C1 14.9707 5.02926 19 10 19C14.9707 19 19 14.9707 19 10C19 5.02926 14.9707 1 10 1ZM14.1281 13.9819C13.9669 14.2474 13.6208 14.3302 13.3564 14.169C11.2425 12.8771 8.5824 12.5858 5.44949 13.3017C5.14748 13.3704 4.84654 13.1813 4.77776 12.8803C4.70898 12.5784 4.89706 12.2774 5.20014 12.2086C8.62861 11.4251 11.5691 11.7626 13.9422 13.2114C14.2066 13.3726 14.2904 13.7176 14.1281 13.9819ZM15.2298 11.5316C15.0266 11.8614 14.5946 11.9657 14.2647 11.7627C11.8465 10.2762 8.15787 9.84523 5.29579 10.7136C4.925 10.8254 4.53271 10.6169 4.41987 10.2461C4.3081 9.87533 4.51767 9.48412 4.88738 9.37127C8.15679 8.37927 12.2204 8.85969 14.9976 10.5675C15.3275 10.7706 15.4318 11.2026 15.2287 11.5326L15.2298 11.5316ZM15.3243 8.98005C12.4236 7.25723 7.63768 7.09923 4.86804 7.9397C4.42309 8.07511 3.95342 7.82362 3.818 7.37867C3.68365 6.93372 3.93408 6.46406 4.37903 6.32864C7.55815 5.3635 12.8438 5.55051 16.1831 7.53236C16.5828 7.76988 16.714 8.28684 16.4775 8.68557C16.24 9.08539 15.7231 9.21757 15.3243 8.98005Z" fill="#66D36E"></path></svg>